<mxfile host="Electron" agent="Mozilla/5.0 (Windows NT 10.0; Win64; x64) AppleWebKit/537.36 (KHTML, like Gecko) draw.io/27.0.9 Chrome/134.0.6998.205 Electron/35.4.0 Safari/537.36" version="27.0.9" pages="2">
  <diagram name="쇼핑몰" id="b9Lf8tZFh7U4rmQEqqKz">
    <mxGraphModel dx="1380" dy="1186" grid="1" gridSize="10" guides="1" tooltips="1" connect="1" arrows="1" fold="1" page="1" pageScale="1" pageWidth="827" pageHeight="1169" math="0" shadow="0">
      <root>
        <mxCell id="0" />
        <mxCell id="1" parent="0" />
        <mxCell id="3-NaPP0Sm2eV7VNcV9wb-1" value="&lt;font style=&quot;font-size: 20px;&quot;&gt;사용자&lt;/font&gt;" style="rounded=1;whiteSpace=wrap;html=1;" parent="1" vertex="1">
          <mxGeometry y="610" width="80" height="40" as="geometry" />
        </mxCell>
        <mxCell id="3-NaPP0Sm2eV7VNcV9wb-2" value="&lt;font style=&quot;font-size: 15px;&quot;&gt;키워드별&lt;/font&gt;&lt;div&gt;&lt;font style=&quot;font-size: 15px;&quot;&gt;상품목록&lt;/font&gt;&lt;/div&gt;" style="rounded=1;whiteSpace=wrap;html=1;" parent="1" vertex="1">
          <mxGeometry x="230" y="510" width="80" height="40" as="geometry" />
        </mxCell>
        <mxCell id="3-NaPP0Sm2eV7VNcV9wb-3" value="&lt;font style=&quot;font-size: 15px;&quot;&gt;세일 상품보기&lt;/font&gt;" style="rounded=1;whiteSpace=wrap;html=1;" parent="1" vertex="1">
          <mxGeometry x="230" y="570" width="80" height="40" as="geometry" />
        </mxCell>
        <mxCell id="3-NaPP0Sm2eV7VNcV9wb-4" value="&lt;font style=&quot;font-size: 15px;&quot;&gt;&amp;nbsp;신상품&amp;nbsp;&lt;/font&gt;&lt;div&gt;&lt;font style=&quot;font-size: 15px;&quot;&gt;보기&lt;/font&gt;&lt;/div&gt;" style="rounded=1;whiteSpace=wrap;html=1;" parent="1" vertex="1">
          <mxGeometry x="230" y="650" width="80" height="40" as="geometry" />
        </mxCell>
        <mxCell id="3-NaPP0Sm2eV7VNcV9wb-5" value="&lt;span style=&quot;font-size: 15px;&quot;&gt;인기 상품&lt;/span&gt;&lt;div&gt;&lt;span style=&quot;font-size: 15px;&quot;&gt;보기&lt;/span&gt;&lt;/div&gt;" style="rounded=1;whiteSpace=wrap;html=1;" parent="1" vertex="1">
          <mxGeometry x="230" y="710" width="80" height="40" as="geometry" />
        </mxCell>
        <mxCell id="3-NaPP0Sm2eV7VNcV9wb-18" value="" style="edgeStyle=orthogonalEdgeStyle;rounded=0;orthogonalLoop=1;jettySize=auto;html=1;" parent="1" source="3-NaPP0Sm2eV7VNcV9wb-9" target="3-NaPP0Sm2eV7VNcV9wb-1" edge="1">
          <mxGeometry relative="1" as="geometry" />
        </mxCell>
        <mxCell id="3-NaPP0Sm2eV7VNcV9wb-28" value="" style="edgeStyle=orthogonalEdgeStyle;rounded=0;orthogonalLoop=1;jettySize=auto;html=1;" parent="1" source="3-NaPP0Sm2eV7VNcV9wb-9" target="3-NaPP0Sm2eV7VNcV9wb-1" edge="1">
          <mxGeometry relative="1" as="geometry" />
        </mxCell>
        <mxCell id="3-NaPP0Sm2eV7VNcV9wb-9" value="&lt;span style=&quot;font-size: 15px;&quot;&gt;메인페이지&lt;/span&gt;" style="rounded=1;whiteSpace=wrap;html=1;" parent="1" vertex="1">
          <mxGeometry x="110" y="610" width="80" height="40" as="geometry" />
        </mxCell>
        <mxCell id="3-NaPP0Sm2eV7VNcV9wb-11" value="&lt;span style=&quot;font-size: 15px;&quot;&gt;상품 조회&lt;/span&gt;" style="rounded=1;whiteSpace=wrap;html=1;" parent="1" vertex="1">
          <mxGeometry x="350" y="610" width="80" height="40" as="geometry" />
        </mxCell>
        <mxCell id="3-NaPP0Sm2eV7VNcV9wb-12" value="&lt;span style=&quot;font-size: 15px;&quot;&gt;찜하기&lt;/span&gt;" style="rounded=1;whiteSpace=wrap;html=1;" parent="1" vertex="1">
          <mxGeometry x="450" y="610" width="80" height="40" as="geometry" />
        </mxCell>
        <mxCell id="3-NaPP0Sm2eV7VNcV9wb-13" value="&lt;span style=&quot;font-size: 15px;&quot;&gt;관심목록&lt;/span&gt;" style="rounded=1;whiteSpace=wrap;html=1;" parent="1" vertex="1">
          <mxGeometry x="550" y="610" width="80" height="40" as="geometry" />
        </mxCell>
        <mxCell id="3-NaPP0Sm2eV7VNcV9wb-14" value="&lt;span style=&quot;font-size: 15px;&quot;&gt;로그인&lt;/span&gt;" style="rounded=1;whiteSpace=wrap;html=1;" parent="1" vertex="1">
          <mxGeometry x="647" y="610" width="80" height="40" as="geometry" />
        </mxCell>
        <mxCell id="3-NaPP0Sm2eV7VNcV9wb-15" value="&lt;span style=&quot;font-size: 15px;&quot;&gt;쿠폰&lt;/span&gt;" style="rounded=1;whiteSpace=wrap;html=1;" parent="1" vertex="1">
          <mxGeometry x="750" y="610" width="70" height="40" as="geometry" />
        </mxCell>
        <mxCell id="3-NaPP0Sm2eV7VNcV9wb-17" value="" style="endArrow=classic;startArrow=classic;html=1;rounded=0;exitX=1;exitY=0.5;exitDx=0;exitDy=0;entryX=0;entryY=0.5;entryDx=0;entryDy=0;" parent="1" source="3-NaPP0Sm2eV7VNcV9wb-1" target="3-NaPP0Sm2eV7VNcV9wb-9" edge="1">
          <mxGeometry width="50" height="50" relative="1" as="geometry">
            <mxPoint x="150" y="620" as="sourcePoint" />
            <mxPoint x="200" y="570" as="targetPoint" />
          </mxGeometry>
        </mxCell>
        <mxCell id="3-NaPP0Sm2eV7VNcV9wb-19" value="" style="endArrow=classic;startArrow=classic;html=1;rounded=0;entryX=0;entryY=0.5;entryDx=0;entryDy=0;exitX=1;exitY=0.5;exitDx=0;exitDy=0;" parent="1" source="3-NaPP0Sm2eV7VNcV9wb-9" target="3-NaPP0Sm2eV7VNcV9wb-2" edge="1">
          <mxGeometry width="50" height="50" relative="1" as="geometry">
            <mxPoint x="200" y="630" as="sourcePoint" />
            <mxPoint x="160" y="560" as="targetPoint" />
            <Array as="points">
              <mxPoint x="210" y="630" />
              <mxPoint x="210" y="530" />
            </Array>
          </mxGeometry>
        </mxCell>
        <mxCell id="3-NaPP0Sm2eV7VNcV9wb-20" value="" style="endArrow=classic;startArrow=classic;html=1;rounded=0;entryX=1;entryY=0.5;entryDx=0;entryDy=0;exitX=0;exitY=0.5;exitDx=0;exitDy=0;" parent="1" source="3-NaPP0Sm2eV7VNcV9wb-5" target="3-NaPP0Sm2eV7VNcV9wb-9" edge="1">
          <mxGeometry width="50" height="50" relative="1" as="geometry">
            <mxPoint x="220.0000000000001" y="740" as="sourcePoint" />
            <mxPoint x="200.0000000000001" y="640" as="targetPoint" />
            <Array as="points">
              <mxPoint x="210" y="730" />
              <mxPoint x="210" y="630" />
            </Array>
          </mxGeometry>
        </mxCell>
        <mxCell id="3-NaPP0Sm2eV7VNcV9wb-21" value="" style="endArrow=classic;startArrow=classic;html=1;rounded=0;entryX=1;entryY=0.5;entryDx=0;entryDy=0;exitX=0;exitY=0.5;exitDx=0;exitDy=0;" parent="1" source="3-NaPP0Sm2eV7VNcV9wb-4" target="3-NaPP0Sm2eV7VNcV9wb-9" edge="1">
          <mxGeometry width="50" height="50" relative="1" as="geometry">
            <mxPoint x="210" y="690" as="sourcePoint" />
            <mxPoint x="190" y="660" as="targetPoint" />
            <Array as="points">
              <mxPoint x="210" y="670" />
              <mxPoint x="210" y="630" />
            </Array>
          </mxGeometry>
        </mxCell>
        <mxCell id="3-NaPP0Sm2eV7VNcV9wb-22" value="" style="endArrow=classic;startArrow=classic;html=1;rounded=0;entryX=1;entryY=0.5;entryDx=0;entryDy=0;exitX=0;exitY=0.5;exitDx=0;exitDy=0;" parent="1" source="3-NaPP0Sm2eV7VNcV9wb-3" target="3-NaPP0Sm2eV7VNcV9wb-9" edge="1">
          <mxGeometry width="50" height="50" relative="1" as="geometry">
            <mxPoint x="150" y="730" as="sourcePoint" />
            <mxPoint x="130" y="690" as="targetPoint" />
            <Array as="points">
              <mxPoint x="210" y="590" />
              <mxPoint x="210" y="630" />
            </Array>
          </mxGeometry>
        </mxCell>
        <mxCell id="3-NaPP0Sm2eV7VNcV9wb-24" value="" style="endArrow=classic;startArrow=classic;html=1;rounded=0;entryX=0;entryY=0.5;entryDx=0;entryDy=0;exitX=1;exitY=0.5;exitDx=0;exitDy=0;" parent="1" edge="1">
          <mxGeometry width="50" height="50" relative="1" as="geometry">
            <mxPoint x="350" y="630" as="sourcePoint" />
            <mxPoint x="310" y="530" as="targetPoint" />
            <Array as="points">
              <mxPoint x="330" y="630" />
              <mxPoint x="330" y="530" />
            </Array>
          </mxGeometry>
        </mxCell>
        <mxCell id="3-NaPP0Sm2eV7VNcV9wb-25" value="" style="endArrow=classic;startArrow=classic;html=1;rounded=0;entryX=1;entryY=0.5;entryDx=0;entryDy=0;exitX=0;exitY=0.5;exitDx=0;exitDy=0;" parent="1" edge="1">
          <mxGeometry width="50" height="50" relative="1" as="geometry">
            <mxPoint x="310" y="730" as="sourcePoint" />
            <mxPoint x="350" y="630" as="targetPoint" />
            <Array as="points">
              <mxPoint x="330" y="730" />
              <mxPoint x="330" y="630" />
            </Array>
          </mxGeometry>
        </mxCell>
        <mxCell id="3-NaPP0Sm2eV7VNcV9wb-26" value="" style="endArrow=classic;startArrow=classic;html=1;rounded=0;entryX=1;entryY=0.5;entryDx=0;entryDy=0;exitX=0;exitY=0.5;exitDx=0;exitDy=0;" parent="1" edge="1">
          <mxGeometry width="50" height="50" relative="1" as="geometry">
            <mxPoint x="310" y="670" as="sourcePoint" />
            <mxPoint x="350" y="630" as="targetPoint" />
            <Array as="points">
              <mxPoint x="330" y="670" />
              <mxPoint x="330" y="630" />
            </Array>
          </mxGeometry>
        </mxCell>
        <mxCell id="3-NaPP0Sm2eV7VNcV9wb-27" value="" style="endArrow=classic;startArrow=classic;html=1;rounded=0;entryX=1;entryY=0.5;entryDx=0;entryDy=0;exitX=0;exitY=0.5;exitDx=0;exitDy=0;" parent="1" edge="1">
          <mxGeometry width="50" height="50" relative="1" as="geometry">
            <mxPoint x="310" y="590" as="sourcePoint" />
            <mxPoint x="350" y="630" as="targetPoint" />
            <Array as="points">
              <mxPoint x="330" y="590" />
              <mxPoint x="330" y="630" />
            </Array>
          </mxGeometry>
        </mxCell>
        <mxCell id="3-NaPP0Sm2eV7VNcV9wb-29" value="" style="endArrow=classic;html=1;rounded=0;entryX=0;entryY=0.5;entryDx=0;entryDy=0;exitX=1;exitY=0.5;exitDx=0;exitDy=0;" parent="1" source="3-NaPP0Sm2eV7VNcV9wb-11" target="3-NaPP0Sm2eV7VNcV9wb-12" edge="1">
          <mxGeometry width="50" height="50" relative="1" as="geometry">
            <mxPoint x="430" y="700" as="sourcePoint" />
            <mxPoint x="480" y="650" as="targetPoint" />
          </mxGeometry>
        </mxCell>
        <mxCell id="3-NaPP0Sm2eV7VNcV9wb-31" value="" style="endArrow=classic;html=1;rounded=0;entryX=0;entryY=0.5;entryDx=0;entryDy=0;exitX=1;exitY=0.5;exitDx=0;exitDy=0;" parent="1" edge="1">
          <mxGeometry width="50" height="50" relative="1" as="geometry">
            <mxPoint x="530" y="629.82" as="sourcePoint" />
            <mxPoint x="550" y="629.82" as="targetPoint" />
          </mxGeometry>
        </mxCell>
        <mxCell id="3-NaPP0Sm2eV7VNcV9wb-32" value="" style="endArrow=classic;html=1;rounded=0;entryX=0;entryY=0.5;entryDx=0;entryDy=0;exitX=1;exitY=0.5;exitDx=0;exitDy=0;" parent="1" edge="1">
          <mxGeometry width="50" height="50" relative="1" as="geometry">
            <mxPoint x="630" y="629.82" as="sourcePoint" />
            <mxPoint x="650" y="629.82" as="targetPoint" />
          </mxGeometry>
        </mxCell>
        <mxCell id="3-NaPP0Sm2eV7VNcV9wb-33" value="" style="endArrow=classic;html=1;rounded=0;entryX=0;entryY=0.5;entryDx=0;entryDy=0;exitX=1;exitY=0.5;exitDx=0;exitDy=0;" parent="1" edge="1">
          <mxGeometry width="50" height="50" relative="1" as="geometry">
            <mxPoint x="730" y="629.82" as="sourcePoint" />
            <mxPoint x="750" y="629.82" as="targetPoint" />
          </mxGeometry>
        </mxCell>
      </root>
    </mxGraphModel>
  </diagram>
  <diagram id="ydPq135C0Q1DOdYQExs_" name="로그인 FLOWCHART">
    <mxGraphModel dx="1725" dy="1483" grid="1" gridSize="10" guides="1" tooltips="1" connect="1" arrows="1" fold="1" page="1" pageScale="1" pageWidth="827" pageHeight="1169" math="0" shadow="0">
      <root>
        <mxCell id="0" />
        <mxCell id="1" parent="0" />
        <mxCell id="GiLMzQGx2DFJwpaIMuI--1" value="Note" style="shape=note;size=20;whiteSpace=wrap;html=1;" vertex="1" parent="1">
          <mxGeometry x="18" y="200" width="790" height="950" as="geometry" />
        </mxCell>
        <mxCell id="GiLMzQGx2DFJwpaIMuI--2" value="" style="edgeStyle=orthogonalEdgeStyle;rounded=0;orthogonalLoop=1;jettySize=auto;html=1;" edge="1" parent="1" source="GiLMzQGx2DFJwpaIMuI--3" target="GiLMzQGx2DFJwpaIMuI--5">
          <mxGeometry relative="1" as="geometry" />
        </mxCell>
        <mxCell id="GiLMzQGx2DFJwpaIMuI--3" value="시작" style="strokeWidth=2;html=1;shape=mxgraph.flowchart.terminator;whiteSpace=wrap;" vertex="1" parent="1">
          <mxGeometry x="190" y="279" width="100" height="60" as="geometry" />
        </mxCell>
        <mxCell id="GiLMzQGx2DFJwpaIMuI--4" value="" style="edgeStyle=orthogonalEdgeStyle;rounded=0;orthogonalLoop=1;jettySize=auto;html=1;" edge="1" parent="1" source="GiLMzQGx2DFJwpaIMuI--5" target="GiLMzQGx2DFJwpaIMuI--7">
          <mxGeometry relative="1" as="geometry" />
        </mxCell>
        <mxCell id="GiLMzQGx2DFJwpaIMuI--5" value="로그인 페이지" style="strokeWidth=2;html=1;shape=mxgraph.flowchart.document2;whiteSpace=wrap;size=0.25;" vertex="1" parent="1">
          <mxGeometry x="190" y="369" width="100" height="60" as="geometry" />
        </mxCell>
        <mxCell id="GiLMzQGx2DFJwpaIMuI--6" value="" style="edgeStyle=orthogonalEdgeStyle;rounded=0;orthogonalLoop=1;jettySize=auto;html=1;" edge="1" parent="1" source="GiLMzQGx2DFJwpaIMuI--7" target="GiLMzQGx2DFJwpaIMuI--9">
          <mxGeometry relative="1" as="geometry" />
        </mxCell>
        <mxCell id="GiLMzQGx2DFJwpaIMuI--7" value="ID/PW 입력" style="shape=parallelogram;html=1;strokeWidth=2;perimeter=parallelogramPerimeter;whiteSpace=wrap;rounded=1;arcSize=12;size=0.23;" vertex="1" parent="1">
          <mxGeometry x="190" y="459" width="100" height="60" as="geometry" />
        </mxCell>
        <mxCell id="GiLMzQGx2DFJwpaIMuI--8" value="" style="edgeStyle=orthogonalEdgeStyle;rounded=0;orthogonalLoop=1;jettySize=auto;html=1;" edge="1" parent="1" source="GiLMzQGx2DFJwpaIMuI--9" target="GiLMzQGx2DFJwpaIMuI--11">
          <mxGeometry relative="1" as="geometry" />
        </mxCell>
        <mxCell id="GiLMzQGx2DFJwpaIMuI--9" value="ID/PW 확인 처리" style="whiteSpace=wrap;html=1;strokeWidth=2;rounded=1;arcSize=0;" vertex="1" parent="1">
          <mxGeometry x="180" y="599" width="120" height="60" as="geometry" />
        </mxCell>
        <mxCell id="GiLMzQGx2DFJwpaIMuI--10" value="" style="edgeStyle=orthogonalEdgeStyle;rounded=0;orthogonalLoop=1;jettySize=auto;html=1;" edge="1" parent="1" source="GiLMzQGx2DFJwpaIMuI--11" target="GiLMzQGx2DFJwpaIMuI--13">
          <mxGeometry relative="1" as="geometry" />
        </mxCell>
        <mxCell id="GiLMzQGx2DFJwpaIMuI--11" value="&lt;div&gt;&lt;br&gt;&lt;/div&gt;사용자&lt;br&gt;&lt;div&gt;테이블&lt;/div&gt;" style="strokeWidth=2;html=1;shape=mxgraph.flowchart.database;whiteSpace=wrap;" vertex="1" parent="1">
          <mxGeometry x="350" y="599" width="70" height="60" as="geometry" />
        </mxCell>
        <mxCell id="GiLMzQGx2DFJwpaIMuI--12" value="" style="edgeStyle=orthogonalEdgeStyle;rounded=0;orthogonalLoop=1;jettySize=auto;html=1;" edge="1" parent="1" source="GiLMzQGx2DFJwpaIMuI--13" target="GiLMzQGx2DFJwpaIMuI--18">
          <mxGeometry relative="1" as="geometry" />
        </mxCell>
        <mxCell id="GiLMzQGx2DFJwpaIMuI--13" value="동일한 ID&lt;div&gt;존재 확인&lt;/div&gt;" style="strokeWidth=2;html=1;shape=mxgraph.flowchart.decision;whiteSpace=wrap;" vertex="1" parent="1">
          <mxGeometry x="340" y="699" width="90" height="90" as="geometry" />
        </mxCell>
        <mxCell id="GiLMzQGx2DFJwpaIMuI--14" style="edgeStyle=orthogonalEdgeStyle;rounded=0;orthogonalLoop=1;jettySize=auto;html=1;entryX=1;entryY=0.5;entryDx=0;entryDy=0;entryPerimeter=0;" edge="1" parent="1" source="GiLMzQGx2DFJwpaIMuI--13" target="GiLMzQGx2DFJwpaIMuI--5">
          <mxGeometry relative="1" as="geometry">
            <Array as="points">
              <mxPoint x="490" y="744" />
              <mxPoint x="490" y="399" />
            </Array>
          </mxGeometry>
        </mxCell>
        <mxCell id="GiLMzQGx2DFJwpaIMuI--15" value="NO" style="text;html=1;align=center;verticalAlign=middle;resizable=0;points=[];autosize=1;strokeColor=none;fillColor=none;fontStyle=1" vertex="1" parent="1">
          <mxGeometry x="436" y="717" width="40" height="30" as="geometry" />
        </mxCell>
        <mxCell id="GiLMzQGx2DFJwpaIMuI--16" value="YES" style="text;html=1;align=center;verticalAlign=middle;resizable=0;points=[];autosize=1;strokeColor=none;fillColor=none;fontStyle=1" vertex="1" parent="1">
          <mxGeometry x="382" y="788" width="50" height="30" as="geometry" />
        </mxCell>
        <mxCell id="GiLMzQGx2DFJwpaIMuI--17" value="" style="edgeStyle=orthogonalEdgeStyle;rounded=0;orthogonalLoop=1;jettySize=auto;html=1;" edge="1" parent="1" source="GiLMzQGx2DFJwpaIMuI--18" target="GiLMzQGx2DFJwpaIMuI--29">
          <mxGeometry relative="1" as="geometry" />
        </mxCell>
        <mxCell id="GiLMzQGx2DFJwpaIMuI--18" value="PW&lt;div&gt;일치(확인)&lt;/div&gt;" style="strokeWidth=2;html=1;shape=mxgraph.flowchart.decision;whiteSpace=wrap;" vertex="1" parent="1">
          <mxGeometry x="340" y="824" width="90" height="90" as="geometry" />
        </mxCell>
        <mxCell id="GiLMzQGx2DFJwpaIMuI--19" style="edgeStyle=orthogonalEdgeStyle;rounded=0;orthogonalLoop=1;jettySize=auto;html=1;exitX=1;exitY=0.5;exitDx=0;exitDy=0;exitPerimeter=0;entryX=1;entryY=0.5;entryDx=0;entryDy=0;entryPerimeter=0;" edge="1" parent="1" source="GiLMzQGx2DFJwpaIMuI--18" target="GiLMzQGx2DFJwpaIMuI--5">
          <mxGeometry relative="1" as="geometry">
            <Array as="points">
              <mxPoint x="490" y="869" />
              <mxPoint x="490" y="399" />
            </Array>
          </mxGeometry>
        </mxCell>
        <mxCell id="GiLMzQGx2DFJwpaIMuI--20" value="" style="group" vertex="1" connectable="0" parent="1">
          <mxGeometry x="510" y="675" width="255" height="60" as="geometry" />
        </mxCell>
        <mxCell id="GiLMzQGx2DFJwpaIMuI--21" style="edgeStyle=orthogonalEdgeStyle;rounded=0;orthogonalLoop=1;jettySize=auto;html=1;exitX=0;exitY=0.5;exitDx=0;exitDy=0;" edge="1" parent="GiLMzQGx2DFJwpaIMuI--20" source="GiLMzQGx2DFJwpaIMuI--22">
          <mxGeometry relative="1" as="geometry">
            <mxPoint x="-20" y="30.22222222222217" as="targetPoint" />
          </mxGeometry>
        </mxCell>
        <mxCell id="GiLMzQGx2DFJwpaIMuI--22" value="&lt;p style=&quot;margin:0px;margin-top:4px;text-align:center;&quot;&gt;&lt;b&gt;Message&lt;/b&gt;&lt;/p&gt;&lt;hr size=&quot;1&quot; style=&quot;border-style:solid;&quot;&gt;&lt;div style=&quot;height:2px;&quot;&gt;&lt;/div&gt;" style="verticalAlign=top;align=left;overflow=fill;html=1;whiteSpace=wrap;" vertex="1" parent="GiLMzQGx2DFJwpaIMuI--20">
          <mxGeometry width="255" height="60" as="geometry" />
        </mxCell>
        <mxCell id="GiLMzQGx2DFJwpaIMuI--23" value="동일 ID가 존재하지 않습니다." style="text;html=1;align=center;verticalAlign=middle;resizable=0;points=[];autosize=1;strokeColor=none;fillColor=none;fontSize=14;fontStyle=4" vertex="1" parent="GiLMzQGx2DFJwpaIMuI--20">
          <mxGeometry x="34.5" y="27" width="190" height="30" as="geometry" />
        </mxCell>
        <mxCell id="GiLMzQGx2DFJwpaIMuI--24" value="" style="group" vertex="1" connectable="0" parent="1">
          <mxGeometry x="510" y="806" width="255" height="60" as="geometry" />
        </mxCell>
        <mxCell id="GiLMzQGx2DFJwpaIMuI--25" style="edgeStyle=orthogonalEdgeStyle;rounded=0;orthogonalLoop=1;jettySize=auto;html=1;exitX=0;exitY=0.5;exitDx=0;exitDy=0;" edge="1" parent="GiLMzQGx2DFJwpaIMuI--24" source="GiLMzQGx2DFJwpaIMuI--26">
          <mxGeometry relative="1" as="geometry">
            <mxPoint x="-20" y="30.333333333333258" as="targetPoint" />
          </mxGeometry>
        </mxCell>
        <mxCell id="GiLMzQGx2DFJwpaIMuI--26" value="&lt;p style=&quot;margin:0px;margin-top:4px;text-align:center;&quot;&gt;&lt;b&gt;Message&lt;/b&gt;&lt;/p&gt;&lt;hr size=&quot;1&quot; style=&quot;border-style:solid;&quot;&gt;&lt;div style=&quot;height:2px;&quot;&gt;&lt;/div&gt;" style="verticalAlign=top;align=left;overflow=fill;html=1;whiteSpace=wrap;" vertex="1" parent="GiLMzQGx2DFJwpaIMuI--24">
          <mxGeometry width="255" height="60" as="geometry" />
        </mxCell>
        <mxCell id="GiLMzQGx2DFJwpaIMuI--27" value="PW가 일치하지 않습니다." style="text;html=1;align=center;verticalAlign=middle;resizable=0;points=[];autosize=1;strokeColor=none;fillColor=none;fontSize=14;fontStyle=4" vertex="1" parent="GiLMzQGx2DFJwpaIMuI--24">
          <mxGeometry x="44.5" y="27" width="170" height="30" as="geometry" />
        </mxCell>
        <mxCell id="GiLMzQGx2DFJwpaIMuI--28" value="" style="edgeStyle=orthogonalEdgeStyle;rounded=0;orthogonalLoop=1;jettySize=auto;html=1;" edge="1" parent="1" source="GiLMzQGx2DFJwpaIMuI--29" target="GiLMzQGx2DFJwpaIMuI--36">
          <mxGeometry relative="1" as="geometry" />
        </mxCell>
        <mxCell id="GiLMzQGx2DFJwpaIMuI--29" value="인증 확인&lt;br&gt;(권한 부여)" style="whiteSpace=wrap;html=1;strokeWidth=2;spacing=2;spacingTop=0;" vertex="1" parent="1">
          <mxGeometry x="180" y="839" width="120" height="60" as="geometry" />
        </mxCell>
        <mxCell id="GiLMzQGx2DFJwpaIMuI--30" value="종료" style="strokeWidth=2;html=1;shape=mxgraph.flowchart.terminator;whiteSpace=wrap;" vertex="1" parent="1">
          <mxGeometry x="190" y="1073" width="100" height="60" as="geometry" />
        </mxCell>
        <mxCell id="GiLMzQGx2DFJwpaIMuI--35" value="" style="edgeStyle=orthogonalEdgeStyle;rounded=0;orthogonalLoop=1;jettySize=auto;html=1;" edge="1" parent="1" source="GiLMzQGx2DFJwpaIMuI--36" target="GiLMzQGx2DFJwpaIMuI--30">
          <mxGeometry relative="1" as="geometry" />
        </mxCell>
        <mxCell id="GiLMzQGx2DFJwpaIMuI--36" value="메인페이지로&lt;div&gt;리다이렉트&lt;/div&gt;" style="whiteSpace=wrap;html=1;strokeWidth=2;spacing=2;spacingTop=0;" vertex="1" parent="1">
          <mxGeometry x="180" y="979" width="120" height="60" as="geometry" />
        </mxCell>
        <mxCell id="GiLMzQGx2DFJwpaIMuI--37" value="로그인 FLOWCHART" style="text;html=1;align=center;verticalAlign=middle;resizable=0;points=[];autosize=1;strokeColor=none;fillColor=none;fontSize=35;fontStyle=1" vertex="1" parent="1">
          <mxGeometry x="30" y="200" width="350" height="60" as="geometry" />
        </mxCell>
        <mxCell id="GiLMzQGx2DFJwpaIMuI--38" value="" style="shape=internalStorage;whiteSpace=wrap;html=1;backgroundOutline=1;dx=140;dy=90;" vertex="1" parent="1">
          <mxGeometry x="513" y="279" width="280" height="380" as="geometry" />
        </mxCell>
        <mxCell id="GiLMzQGx2DFJwpaIMuI--39" value="START" style="strokeWidth=2;html=1;shape=mxgraph.flowchart.terminator;whiteSpace=wrap;" vertex="1" parent="1">
          <mxGeometry x="538" y="296" width="90" height="60" as="geometry" />
        </mxCell>
        <mxCell id="GiLMzQGx2DFJwpaIMuI--40" value="시작/끝" style="text;html=1;align=center;verticalAlign=middle;resizable=0;points=[];autosize=1;strokeColor=none;fillColor=none;" vertex="1" parent="1">
          <mxGeometry x="688" y="311" width="60" height="30" as="geometry" />
        </mxCell>
        <mxCell id="GiLMzQGx2DFJwpaIMuI--41" value="" style="shape=parallelogram;html=1;strokeWidth=2;perimeter=parallelogramPerimeter;whiteSpace=wrap;rounded=1;arcSize=12;size=0.23;" vertex="1" parent="1">
          <mxGeometry x="533" y="386" width="100" height="60" as="geometry" />
        </mxCell>
        <mxCell id="GiLMzQGx2DFJwpaIMuI--42" value="입력/출력" style="text;html=1;align=center;verticalAlign=middle;resizable=0;points=[];autosize=1;strokeColor=none;fillColor=none;" vertex="1" parent="1">
          <mxGeometry x="683" y="401" width="70" height="30" as="geometry" />
        </mxCell>
        <mxCell id="GiLMzQGx2DFJwpaIMuI--43" value="PROCESS" style="whiteSpace=wrap;html=1;strokeWidth=2;rounded=1;arcSize=0;" vertex="1" parent="1">
          <mxGeometry x="523" y="476" width="120" height="60" as="geometry" />
        </mxCell>
        <mxCell id="GiLMzQGx2DFJwpaIMuI--44" value="처리/절차" style="text;html=1;align=center;verticalAlign=middle;resizable=0;points=[];autosize=1;strokeColor=none;fillColor=none;" vertex="1" parent="1">
          <mxGeometry x="683" y="491" width="70" height="30" as="geometry" />
        </mxCell>
        <mxCell id="GiLMzQGx2DFJwpaIMuI--45" value="" style="strokeWidth=2;html=1;shape=mxgraph.flowchart.decision;whiteSpace=wrap;" vertex="1" parent="1">
          <mxGeometry x="538" y="556" width="90" height="90" as="geometry" />
        </mxCell>
        <mxCell id="GiLMzQGx2DFJwpaIMuI--46" value="판단" style="text;html=1;align=center;verticalAlign=middle;resizable=0;points=[];autosize=1;strokeColor=none;fillColor=none;" vertex="1" parent="1">
          <mxGeometry x="693" y="586" width="50" height="30" as="geometry" />
        </mxCell>
        <mxCell id="GiLMzQGx2DFJwpaIMuI--47" value="&lt;font style=&quot;font-size: 20px;&quot;&gt;로그인 / 회원가입&lt;/font&gt;" style="rounded=0;whiteSpace=wrap;html=1;" vertex="1" parent="1">
          <mxGeometry x="558" y="209" width="190" height="60" as="geometry" />
        </mxCell>
        <mxCell id="GiLMzQGx2DFJwpaIMuI--48" value="로그인" style="swimlane;fontStyle=0;childLayout=stackLayout;horizontal=1;startSize=26;fillColor=none;horizontalStack=0;resizeParent=1;resizeParentMax=0;resizeLast=0;collapsible=1;marginBottom=0;html=1;" vertex="1" parent="1">
          <mxGeometry x="30" y="311" width="140" height="100" as="geometry">
            <mxRectangle x="-230" y="250" width="60" height="30" as="alternateBounds" />
          </mxGeometry>
        </mxCell>
        <mxCell id="GiLMzQGx2DFJwpaIMuI--49" value="&lt;span style=&quot;white-space: pre;&quot;&gt;&#x9;&amp;nbsp;&lt;/span&gt;&amp;nbsp;아이디 입력" style="text;strokeColor=none;fillColor=none;align=left;verticalAlign=top;spacingLeft=4;spacingRight=4;overflow=hidden;rotatable=0;points=[[0,0.5],[1,0.5]];portConstraint=eastwest;whiteSpace=wrap;html=1;" vertex="1" parent="GiLMzQGx2DFJwpaIMuI--48">
          <mxGeometry y="26" width="140" height="26" as="geometry" />
        </mxCell>
        <mxCell id="GiLMzQGx2DFJwpaIMuI--50" value="&lt;span style=&quot;white-space: pre;&quot;&gt;&#x9;&lt;/span&gt;패스워드 입력" style="text;strokeColor=none;fillColor=none;align=left;verticalAlign=top;spacingLeft=4;spacingRight=4;overflow=hidden;rotatable=0;points=[[0,0.5],[1,0.5]];portConstraint=eastwest;whiteSpace=wrap;html=1;" vertex="1" parent="GiLMzQGx2DFJwpaIMuI--48">
          <mxGeometry y="52" width="140" height="26" as="geometry" />
        </mxCell>
        <mxCell id="GiLMzQGx2DFJwpaIMuI--51" value="&lt;blockquote style=&quot;margin: 0 0 0 40px; border: none; padding: 0px;&quot;&gt;로그인 완료&lt;/blockquote&gt;" style="text;strokeColor=none;fillColor=none;align=left;verticalAlign=top;spacingLeft=4;spacingRight=4;overflow=hidden;rotatable=0;points=[[0,0.5],[1,0.5]];portConstraint=eastwest;whiteSpace=wrap;html=1;" vertex="1" parent="GiLMzQGx2DFJwpaIMuI--48">
          <mxGeometry y="78" width="140" height="22" as="geometry" />
        </mxCell>
        <mxCell id="GiLMzQGx2DFJwpaIMuI--52" value="NO" style="text;html=1;align=center;verticalAlign=middle;resizable=0;points=[];autosize=1;strokeColor=none;fillColor=none;fontStyle=1" vertex="1" parent="1">
          <mxGeometry x="436" y="836" width="40" height="30" as="geometry" />
        </mxCell>
        <mxCell id="GiLMzQGx2DFJwpaIMuI--53" value="YES" style="text;html=1;align=center;verticalAlign=middle;resizable=0;points=[];autosize=1;strokeColor=none;fillColor=none;fontStyle=1" vertex="1" parent="1">
          <mxGeometry x="300" y="829" width="50" height="30" as="geometry" />
        </mxCell>
      </root>
    </mxGraphModel>
  </diagram>
</mxfile>
